<svg width="53" height="53" viewBox="0 0 53 53" fill="none" xmlns="http://www.w3.org/2000/svg">
<path d="M29.198 0.25C32.1512 0.257875 33.65 0.273625 34.9442 0.310375L35.4534 0.32875C36.0414 0.34975 36.6215 0.376 37.3224 0.4075C40.1154 0.53875 42.0212 0.97975 43.6933 1.62813C45.4258 2.29488 46.8853 3.19788 48.3448 4.65475C49.6801 5.96655 50.713 7.55399 51.3714 9.30625C52.0198 10.9784 52.4608 12.8841 52.592 15.6797C52.6235 16.378 52.6498 16.9581 52.6708 17.5487L52.6865 18.058C52.7259 19.3495 52.7417 20.8484 52.7469 23.8015L52.7495 25.7598V29.1985C52.7559 31.1132 52.7358 33.0279 52.6892 34.942L52.6734 35.4512C52.6524 36.0419 52.6262 36.622 52.5947 37.3202C52.4634 40.1159 52.0172 42.019 51.3714 43.6937C50.713 45.446 49.6801 47.0335 48.3448 48.3453C47.033 49.6806 45.4455 50.7135 43.6933 51.3719C42.0212 52.0203 40.1154 52.4613 37.3224 52.5925L35.4534 52.6712L34.9442 52.687C33.65 52.7238 32.1512 52.7421 29.198 52.7474L27.2398 52.75H23.8037C21.8881 52.7568 19.9725 52.7366 18.0575 52.6896L17.5483 52.6739C16.9251 52.6503 16.3021 52.6231 15.6793 52.5925C12.8863 52.4613 10.9805 52.0203 9.30579 51.3719C7.55447 50.7131 5.96795 49.6803 4.65691 48.3453C3.32065 47.0337 2.28683 45.4462 1.62767 43.6937C0.97929 42.0216 0.53829 40.1159 0.40704 37.3202L0.32829 35.4512L0.315165 34.942C0.266776 33.0279 0.244899 31.1132 0.24954 29.1985V23.8015C0.242274 21.8868 0.261526 19.9721 0.30729 18.058L0.325665 17.5487C0.346665 16.9581 0.372915 16.378 0.404415 15.6797C0.535665 12.8841 0.976665 10.981 1.62504 9.30625C2.28574 7.55327 3.32138 5.96577 4.65954 4.65475C5.96982 3.32007 7.55541 2.28719 9.30579 1.62813C10.9805 0.97975 12.8837 0.53875 15.6793 0.4075C16.3775 0.376 16.9603 0.34975 17.5483 0.32875L18.0575 0.313C19.9717 0.266361 21.8864 0.246234 23.801 0.252625L29.198 0.25ZM26.4995 13.375C23.0186 13.375 19.6802 14.7578 17.2188 17.2192C14.7573 19.6806 13.3745 23.019 13.3745 26.5C13.3745 29.981 14.7573 33.3194 17.2188 35.7808C19.6802 38.2422 23.0186 39.625 26.4995 39.625C29.9805 39.625 33.3189 38.2422 35.7803 35.7808C38.2417 33.3194 39.6245 29.981 39.6245 26.5C39.6245 23.019 38.2417 19.6806 35.7803 17.2192C33.3189 14.7578 29.9805 13.375 26.4995 13.375ZM26.4995 18.625C27.5337 18.6248 28.5578 18.8284 29.5133 19.2239C30.4688 19.6195 31.337 20.1995 32.0684 20.9306C32.7998 21.6617 33.38 22.5298 33.7759 23.4852C34.1718 24.4405 34.3757 25.4645 34.3759 26.4987C34.376 27.5328 34.1725 28.5569 33.7769 29.5124C33.3813 30.4679 32.8014 31.3362 32.0702 32.0675C31.3391 32.7989 30.4711 33.3791 29.5157 33.775C28.5603 34.171 27.5363 34.3748 26.5022 34.375C24.4136 34.375 22.4105 33.5453 20.9337 32.0685C19.4569 30.5916 18.6272 28.5886 18.6272 26.5C18.6272 24.4114 19.4569 22.4084 20.9337 20.9315C22.4105 19.4547 24.4136 18.625 26.5022 18.625M40.2834 9.4375C39.4132 9.4375 38.5786 9.7832 37.9632 10.3986C37.3479 11.0139 37.0022 11.8485 37.0022 12.7188C37.0022 13.589 37.3479 14.4236 37.9632 15.0389C38.5786 15.6543 39.4132 16 40.2834 16C41.1537 16 41.9883 15.6543 42.6036 15.0389C43.219 14.4236 43.5647 13.589 43.5647 12.7188C43.5647 11.8485 43.219 11.0139 42.6036 10.3986C41.9883 9.7832 41.1537 9.4375 40.2834 9.4375Z" fill="#4C7767"/>
</svg>
