<svg width="210" height="71" viewBox="0 0 210 71" fill="none" xmlns="http://www.w3.org/2000/svg">
<path d="M20.0153 26.8464C29.1625 26.9422 36.0109 34.3175 36.0109 44.0394C36.0109 53.7613 29.1625 61.0886 20.0153 61.1844C19.9674 61.1844 19.9195 61.1844 19.9195 61.1844H7.27625C5.50428 61.1844 4.06754 59.7477 4.06754 57.9757V30.0551C4.06754 28.2832 5.50428 26.8464 7.27625 26.8464H19.7758C19.8716 26.8464 19.9195 26.8464 20.0153 26.8464ZM29.5935 44.0394C29.5935 37.7656 25.4749 33.2639 19.7758 33.2639H10.485V54.767H19.7758C25.4749 54.767 29.5935 50.2652 29.5935 44.0394ZM58.6152 25.9365C68.6245 25.9365 76.766 34.078 76.766 44.1351C76.766 54.1444 68.6245 62.3338 58.6152 62.3338H58.5673C48.5581 62.3338 40.4166 54.1444 40.4166 44.1351C40.4166 34.078 48.5581 25.9365 58.5673 25.9365C58.6152 25.9365 58.6152 25.9365 58.6152 25.9365ZM58.5673 55.9164C65.0805 55.9164 70.3485 50.6005 70.3485 44.1351C70.3485 37.622 65.0805 32.3539 58.5673 32.3539C52.102 32.3539 46.834 37.622 46.834 44.1351C46.834 50.6005 52.102 55.9164 58.5673 55.9164ZM116.641 29.9115C116.641 29.9594 116.641 30.0073 116.641 30.0551V57.9757C116.641 59.7477 115.204 61.1844 113.432 61.1844C111.66 61.1844 110.223 59.7477 110.223 57.9757V39.5855L101.986 50.4089C101.938 50.4568 101.89 50.5047 101.842 50.6005C101.794 50.6005 101.794 50.6005 101.794 50.6005C100.693 51.8935 99.2082 51.9414 98.0588 51.3667C98.0109 51.3667 98.0109 51.3188 97.963 51.3188C97.9151 51.3188 97.9151 51.2709 97.8672 51.2709C97.7715 51.223 97.6278 51.1273 97.532 51.0315C97.4841 51.0315 97.4841 51.0315 97.4841 51.0315C97.4362 50.9836 97.4362 50.9836 97.4362 50.9836C97.2926 50.8878 97.1489 50.7441 97.0052 50.6005C97.0052 50.5526 96.9573 50.5526 96.9573 50.5047C96.9094 50.4568 96.8615 50.4089 96.8136 50.361L89.1032 39.8249V57.9757C89.1032 59.7477 87.6664 61.1844 85.8945 61.1844C84.1225 61.1844 82.6858 59.7477 82.6858 57.9757V30.0551C82.6858 30.0073 82.6858 29.9594 82.6858 29.9594C82.6858 29.8636 82.6858 29.8157 82.6858 29.7678C82.6858 29.7199 82.6858 29.672 82.6858 29.6241C82.6858 29.5762 82.6858 29.5762 82.6858 29.5283C82.7336 29.3368 82.7815 29.1931 82.8294 29.0015L82.8773 28.9537C82.9252 28.7621 83.021 28.6184 83.1168 28.4268V28.379C83.2126 28.2353 83.3562 28.0916 83.452 27.9479C83.4999 27.9 83.4999 27.9 83.5478 27.8522C83.5957 27.8043 83.6436 27.7564 83.6915 27.7085C83.7872 27.6127 83.883 27.5648 83.9309 27.469C83.9788 27.469 83.9788 27.469 83.9788 27.469C84.0746 27.3732 84.2183 27.3254 84.3141 27.2296H84.3619C84.4577 27.1817 84.5535 27.1338 84.6014 27.0859C84.6493 27.0859 84.6493 27.0859 84.6493 27.0859C84.793 27.038 84.9366 26.9901 85.0803 26.9422C85.1282 26.9422 85.1282 26.9422 85.1761 26.9422C85.224 26.8943 85.2719 26.8943 85.3198 26.8943C85.3677 26.8943 85.4155 26.8943 85.4634 26.8464C85.5592 26.8464 85.6071 26.8464 85.7029 26.8464C85.7029 26.8464 85.7508 26.8464 85.7987 26.8464C85.7987 26.8464 85.8466 26.8464 85.8945 26.8464C86.0381 26.8464 86.1818 26.8464 86.3255 26.8943H86.3734C86.5649 26.8943 86.7565 26.9422 86.9002 27.038C86.9481 27.038 86.9481 27.038 86.996 27.038C87.1396 27.0859 87.3312 27.1817 87.4749 27.2775C87.5228 27.2775 87.5228 27.3254 87.5707 27.3254C87.7143 27.4211 87.858 27.5169 88.0017 27.6606C88.0017 27.6606 88.0496 27.6606 88.0496 27.7085C88.1932 27.8043 88.3369 27.9479 88.4327 28.1395C88.4327 28.1395 88.4327 28.1395 88.4806 28.1395L99.4477 43.0815L110.894 28.0916C110.942 28.0437 110.942 28.0437 110.942 27.9958H110.989C111.085 27.8522 111.181 27.7564 111.277 27.6606C111.325 27.6606 111.325 27.6127 111.325 27.6127C111.468 27.469 111.66 27.3732 111.804 27.2775C111.804 27.2775 111.851 27.2775 111.851 27.2296C112.043 27.1817 112.187 27.0859 112.378 27.038L112.426 26.9901C112.618 26.9422 112.761 26.8943 112.953 26.8943C113.001 26.8943 113.001 26.8464 113.049 26.8464C113.145 26.8464 113.288 26.8464 113.432 26.8464C113.48 26.8464 113.528 26.8464 113.576 26.8464C113.576 26.8464 113.623 26.8464 113.671 26.8464C113.719 26.8464 113.767 26.8464 113.863 26.8464C113.911 26.8943 113.959 26.8943 114.007 26.8943C114.054 26.8943 114.102 26.8943 114.198 26.9422H114.246C114.342 26.9901 114.438 26.9901 114.533 27.038C114.581 27.038 114.629 27.0859 114.725 27.0859C114.773 27.1338 114.821 27.1817 114.917 27.1817C114.964 27.2296 115.012 27.2296 115.06 27.2775C115.108 27.3254 115.156 27.3254 115.204 27.3732C115.252 27.4211 115.3 27.469 115.348 27.469C115.348 27.469 115.348 27.469 115.395 27.5169C115.443 27.5648 115.491 27.5648 115.491 27.6127C115.539 27.6127 115.539 27.6127 115.539 27.6606C115.635 27.7564 115.731 27.8043 115.826 27.9C115.826 27.9479 115.874 27.9479 115.874 27.9479C115.97 28.0916 116.114 28.2832 116.21 28.4268V28.4747C116.305 28.6184 116.401 28.81 116.449 29.0015C116.449 29.0015 116.449 29.0015 116.497 29.0494C116.545 29.1931 116.593 29.3847 116.593 29.5762C116.593 29.6241 116.593 29.6241 116.593 29.672C116.641 29.7199 116.641 29.7678 116.641 29.8636V29.9115ZM127.378 26.8464C129.15 26.8464 130.587 28.2832 130.587 30.0551V57.9757C130.587 59.7477 129.15 61.1844 127.378 61.1844C125.606 61.1844 124.17 59.7477 124.17 57.9757V30.0551C124.17 28.2832 125.606 26.8464 127.378 26.8464ZM168.23 57.832C168.23 57.9278 168.23 57.9757 168.23 58.0236C168.23 58.1673 168.182 58.3109 168.182 58.4067C168.182 58.4546 168.182 58.5025 168.134 58.5504C168.134 58.6941 168.087 58.8377 168.039 58.9335C168.039 58.9814 167.991 59.0772 167.991 59.1251C167.943 59.2209 167.895 59.3166 167.847 59.3645C167.847 59.4603 167.799 59.5082 167.799 59.5561C167.751 59.6519 167.656 59.7477 167.608 59.7956C167.608 59.8434 167.56 59.8913 167.56 59.8913C167.56 59.9392 167.512 59.9392 167.512 59.9392C167.416 60.0829 167.32 60.1787 167.224 60.2745C167.177 60.3224 167.177 60.3224 167.129 60.3703C167.033 60.4181 166.937 60.5139 166.841 60.6097C166.793 60.6097 166.746 60.6576 166.746 60.7055C166.65 60.7534 166.554 60.8013 166.458 60.8492C166.41 60.8492 166.362 60.8971 166.315 60.8971C166.171 60.9928 166.075 61.0407 165.931 61.0407C165.931 61.0886 165.884 61.0886 165.836 61.0886C165.692 61.1365 165.548 61.1844 165.405 61.1844C165.357 61.1844 165.309 61.1844 165.261 61.1844C165.117 61.1844 165.021 61.1844 164.878 61.1844C164.83 61.1844 164.782 61.1844 164.686 61.1844C164.59 61.1844 164.447 61.1365 164.351 61.1365C164.303 61.0886 164.255 61.0886 164.159 61.0886C164.016 61.0407 163.824 60.9928 163.681 60.8971H163.633C163.681 60.8971 163.681 60.8971 163.681 60.8971C163.681 60.8971 163.681 60.8971 163.633 60.8971C163.633 60.8971 163.633 60.8971 163.585 60.8971C163.585 60.8492 163.585 60.8492 163.537 60.8492C163.537 60.8492 163.489 60.8013 163.441 60.8013C163.393 60.8013 163.393 60.8013 163.393 60.7534C163.345 60.7534 163.297 60.7055 163.25 60.6576C163.25 60.6576 163.25 60.6576 163.202 60.6576C163.202 60.6576 163.202 60.6576 163.202 60.6097C163.106 60.6097 163.058 60.5618 163.01 60.5139C163.01 60.466 162.962 60.466 162.962 60.466C162.914 60.4181 162.866 60.3703 162.771 60.3224C162.771 60.2745 162.723 60.2745 162.723 60.2266C162.675 60.1787 162.579 60.0829 162.531 60.035C162.531 60.035 162.531 59.9871 162.483 59.9871C162.531 59.9871 162.531 60.035 162.531 60.035L144.524 38.7713V57.9757C144.524 59.7477 143.087 61.1844 141.315 61.1844C139.543 61.1844 138.107 59.7477 138.107 57.9757V30.1988C138.011 28.4747 139.352 26.7985 141.315 26.7985C142.273 26.7985 143.183 27.2775 143.758 27.9958L161.765 49.2116V30.0551C161.765 28.2832 163.202 26.7985 165.021 26.7985C166.793 26.7985 168.23 28.2832 168.23 30.0551V57.6883C168.23 57.7362 168.23 57.7841 168.23 57.832ZM207.507 56.539C208.321 58.1194 207.699 60.035 206.118 60.8492C204.538 61.6633 202.575 60.9928 201.808 59.4124L199.557 55.0064H181.359L179.108 59.4124C178.581 60.5618 177.432 61.1844 176.282 61.1844C173.888 61.1844 172.307 58.6462 173.409 56.539L187.585 28.5705C187.632 28.5226 187.632 28.4747 187.68 28.4268C187.68 28.379 187.728 28.379 187.728 28.3311C187.872 28.1395 188.016 27.9479 188.207 27.7564C188.207 27.7085 188.255 27.7085 188.303 27.6606C188.351 27.6127 188.399 27.5648 188.447 27.5169C188.495 27.5169 188.542 27.469 188.59 27.4211C188.638 27.3732 188.686 27.3732 188.734 27.3254C188.926 27.1817 189.165 27.0859 189.404 26.9901C189.452 26.9901 189.452 26.9901 189.5 26.9901C189.548 26.9422 189.644 26.9422 189.692 26.8943C189.788 26.8943 189.835 26.8943 189.883 26.8943C189.931 26.8464 189.979 26.8464 190.027 26.8464C190.171 26.8464 190.314 26.8464 190.41 26.8464C190.458 26.7985 190.458 26.7985 190.458 26.7985L190.506 26.8464C190.602 26.8464 190.745 26.8464 190.841 26.8464C190.841 26.8464 190.889 26.8464 190.937 26.8464C191.033 26.8943 191.129 26.8943 191.272 26.9422H191.32C191.416 26.9901 191.56 26.9901 191.655 27.038C191.703 27.0859 191.751 27.0859 191.751 27.0859C191.799 27.1338 191.847 27.1338 191.895 27.1817C191.943 27.1817 191.991 27.1817 191.991 27.2296C192.038 27.2296 192.086 27.2775 192.086 27.2775C192.182 27.3254 192.278 27.3732 192.374 27.469C192.805 27.8043 193.14 28.1874 193.379 28.6663C193.332 28.6663 193.332 28.6184 193.332 28.6184L207.507 56.539ZM184.663 48.589H196.253L190.458 37.143L184.663 48.589Z" fill="#EDEDED"/>
<path d="M47.0259 15.5928L100.042 3.67898C100.215 3.64014 100.394 3.64014 100.567 3.67899L152.124 15.2647C152.872 15.4329 153.584 14.8637 153.584 14.0966V3.62" stroke="#EDEDED" stroke-width="5.98639" stroke-linecap="round"/>
</svg>
