<svg width="23" height="20" viewBox="0 0 23 20" fill="none" xmlns="http://www.w3.org/2000/svg">
<rect y="0.5" width="23" height="19" rx="9.5" fill="#F9F9F9"/>
<path d="M14.387 14.7916C13.9693 14.7916 13.3827 14.6406 12.5042 14.1498C11.4359 13.5509 10.6096 12.9979 9.54705 11.9384C8.52262 10.9148 8.0241 10.2521 7.32638 8.98269C6.53816 7.54945 6.67253 6.79817 6.82273 6.47708C7.0016 6.09332 7.26562 5.86379 7.60688 5.63597C7.80072 5.50899 8.00584 5.40015 8.21966 5.31081C8.24105 5.30161 8.26095 5.29284 8.27871 5.28493C8.38462 5.23723 8.54508 5.16514 8.74834 5.24215C8.88399 5.29306 9.00509 5.39724 9.19466 5.58441C9.58342 5.96775 10.1147 6.82149 10.3107 7.24077C10.4422 7.52335 10.5293 7.70988 10.5295 7.91909C10.5295 8.16403 10.4063 8.35292 10.2567 8.55678C10.2287 8.59507 10.2009 8.63165 10.1739 8.66716C10.0111 8.88108 9.97539 8.9429 9.99893 9.05328C10.0466 9.27511 10.4024 9.93547 10.9872 10.5188C11.5719 11.1022 12.2134 11.4354 12.4361 11.4829C12.5512 11.5075 12.6143 11.4703 12.8351 11.3018C12.8668 11.2776 12.8993 11.2526 12.9334 11.2275C13.1614 11.0579 13.3416 10.9379 13.5808 10.9379H13.5821C13.7903 10.9379 13.9685 11.0282 14.2637 11.177C14.6489 11.3713 15.5284 11.8956 15.9142 12.2847C16.1018 12.4738 16.2065 12.5944 16.2576 12.7299C16.3346 12.9337 16.2621 13.0935 16.2148 13.2005C16.2069 13.2182 16.1981 13.2377 16.1889 13.2593C16.0989 13.4727 15.9894 13.6773 15.8618 13.8707C15.6343 14.2108 15.4039 14.4741 15.0192 14.6532C14.8217 14.7466 14.6055 14.7939 14.387 14.7916Z" fill="#3E3E3E"/>
</svg>
