<svg width="53" height="53" viewBox="0 0 53 53" fill="none" xmlns="http://www.w3.org/2000/svg">
<path d="M26.5 0.25C12.01 0.25 0.25 12.01 0.25 26.5C0.25 40.99 12.01 52.75 26.5 52.75C40.99 52.75 52.75 40.99 52.75 26.5C52.75 12.01 40.99 0.25 26.5 0.25ZM38.68 18.1C38.2862 22.2475 36.58 32.3275 35.7137 36.9738C35.3463 38.9425 34.6112 39.5988 33.9287 39.6775C32.4062 39.8088 31.2512 38.68 29.7812 37.7088C27.4713 36.1863 26.1588 35.2413 23.9275 33.7713C21.3288 32.065 23.0087 31.12 24.505 29.5975C24.8988 29.2038 31.6187 23.0875 31.75 22.5362C31.7682 22.4528 31.7658 22.3661 31.7429 22.2837C31.7201 22.2014 31.6774 22.1259 31.6187 22.0638C31.4613 21.9325 31.2512 21.985 31.0675 22.0112C30.8312 22.0637 27.1563 24.505 19.99 29.335C18.94 30.0438 17.995 30.4112 17.155 30.385C16.21 30.3587 14.425 29.86 13.0862 29.4137C11.4325 28.8887 10.1462 28.6 10.2513 27.6812C10.3038 27.2087 10.96 26.7362 12.1938 26.2375C19.8588 22.9037 24.9513 20.6988 27.4975 19.6488C34.795 16.6038 36.2913 16.0787 37.2887 16.0787C37.4988 16.0787 37.9975 16.1312 38.3125 16.3937C38.575 16.6037 38.6537 16.8925 38.68 17.1025C38.6537 17.26 38.7062 17.7325 38.68 18.1Z" fill="#4C7767"/>
</svg>
